<?xml version="1.0" encoding="utf-8"?>
<!-- Generator: Adobe Illustrator 27.2.0, SVG Export Plug-In . SVG Version: 6.00 Build 0)  -->
<svg version="1.1" id="Layer_1" xmlns="http://www.w3.org/2000/svg" xmlns:xlink="http://www.w3.org/1999/xlink" x="0px" y="0px"
	 viewBox="0 0 292.2 281.2" style="enable-background:new 0 0 292.2 281.2;" xml:space="preserve">
<style type="text/css">
	.st0{fill:#9D4445;}
</style>
<g>
	<g>
		<path class="st0" d="M221,170.2l-43.7-43.6c-8.3-8.3-19.4-12.9-31.1-12.9s-22.8,4.6-31.1,12.9l-43.6,43.6
			c-21.9,21.9-21.9,57.4,0,79.3c10.6,10.6,24.7,16.4,39.6,16.4c12.9,0,25.2-4.4,35.1-12.4c9.9,8,22.2,12.4,35.1,12.4
			c15,0,29.1-5.8,39.6-16.4c10.6-10.6,16.4-24.7,16.4-39.6C237.4,194.9,231.6,180.8,221,170.2z M211.9,240.4
			c-8.2,8.2-19,12.7-30.6,12.7s-22.4-4.5-30.6-12.7l-30.9-30.9c-6.1-6.1-6.1-16,0-22.1c6.1-6.1,16-6.1,22.1,0c2.5,2.5,6.6,2.5,9.1,0
			c6.1-6.1,16-6.1,22.1,0s6.1,16,0,22.1l-14.7,14.7c-2.5,2.5-2.5,6.6,0,9.1s6.6,2.5,9.1,0l14.7-14.7c11.1-11.1,11.1-29.2,0-40.3
			c-9.7-9.7-24.7-10.9-35.7-3.7c-11-7.2-26-6-35.7,3.7c-11.1,11.1-11.1,29.2,0,40.3l26,26c-7.4,5.5-16.3,8.5-25.7,8.5
			c-11.6,0-22.4-4.5-30.6-12.7c-16.9-16.9-16.9-44.3,0-61.2l43.6-43.6c5.9-5.9,13.7-9.1,22.1-9.1s16.2,3.2,22.1,9.1l43.7,43.6
			c8.2,8.2,12.7,19,12.7,30.6C224.6,221.4,220.1,232.2,211.9,240.4z"/>
		<g>
			<g>
				<path class="st0" d="M231.4,162.8L231.4,162.8c-0.8-0.3-1.6-0.6-2.3-0.9c-17.2-8-23.7-32-14.5-53.3
					c8.7-20.2,28.8-31.3,45.6-25.2c0.8,0.3,1.5,0.6,2.3,0.9c17.2,8,23.7,32,14.5,53.3C268.3,157.9,248.2,168.9,231.4,162.8z
					 M253.8,101.2c-9.3-3.4-20.3,2.7-25.1,13.9c-5.1,11.8-1.5,25,8,29.4c9.5,4.4,21.4-1.7,26.4-13.3c5.1-11.8,1.5-25-8-29.4
					C254.6,101.5,254.2,101.3,253.8,101.2z"/>
			</g>
			<g>
				<path class="st0" d="M181.5,96.5L181.5,96.5c-9.5-1.7-17.7-8.3-22.4-18.3c-4.3-9.2-5.3-20-2.8-30.7c2.5-10.6,8.2-19.7,16.1-25.6
					c7.1-5.3,15.3-7.4,23.2-6.1c9.5,1.7,17.7,8.4,22.4,18.3c4.3,9.2,5.3,20,2.8,30.7s-8.2,19.7-16.1,25.6
					C197.6,95.7,189.4,97.8,181.5,96.5z M192.5,33.9c-4.3-0.8-8.9,0.4-12.8,3.3c-4.3,3.2-7.5,8.2-8.9,14.1s-0.9,11.9,1.5,16.9
					c2.6,5.5,7.1,9.2,12.3,10.1c4.3,0.8,8.9-0.4,12.8-3.3c4.3-3.2,7.5-8.2,8.9-14.1s0.9-11.9-1.5-16.9
					C202.2,38.5,197.7,34.9,192.5,33.9z"/>
			</g>
			<g>
				<path class="st0" d="M109.9,96.3L109.9,96.3c-0.8,0.1-1.6,0.2-2.4,0.3c-8.9,0.8-17.7-2.7-24.9-9.9s-11.8-17-13.1-27.9
					c-2.5-21.2,9-40.2,26.1-43.2c0.8-0.1,1.6-0.2,2.4-0.3c8.9-0.8,17.7,2.7,24.9,9.9c7.2,7.1,11.8,17,13.1,27.9
					C138.5,74.3,127,93.3,109.9,96.3z M98.8,33.8c-9.4,1.7-15.7,12.1-14.4,23.8c1.4,12.3,10.8,21.7,20.9,20.8
					c10.1-0.9,17.1-11.8,15.7-24c-0.7-6-3.3-11.4-7.2-15.4s-8.8-5.9-13.7-5.4C99.7,33.7,99.3,33.7,98.8,33.8z"/>
			</g>
			<g>
				<path class="st0" d="M60.9,162.4C60.9,162.4,60.9,162.4,60.9,162.4c-9.4,3.4-20.1,1.7-29.4-4.8c-8.6-6-15.1-15.2-18.3-26
					s-2.8-21.9,1.2-31.2C17.9,92,24.2,85.8,32,83c9.4-3.4,20.1-1.7,29.4,4.8c17.7,12.3,25.4,38,17.1,57.2
					C74.9,153.4,68.7,159.6,60.9,162.4z M38.4,100.8c-4.3,1.6-7.7,5-9.7,9.6c-2.2,5.1-2.4,11.2-0.6,17.2c1.8,5.9,5.4,11,10.1,14.3
					c5.1,3.6,11,4.5,16.2,2.6c4.3-1.6,7.7-5,9.7-9.6c4.5-10.6,0.3-24.7-9.4-31.5C49.5,99.9,43.6,98.9,38.4,100.8z"/>
			</g>
		</g>
	</g>
</g>
</svg>
