<?xml version="1.0" encoding="utf-8"?>
<!-- Generator: Adobe Illustrator 27.2.0, SVG Export Plug-In . SVG Version: 6.00 Build 0)  -->
<svg version="1.1" id="Layer_1" xmlns="http://www.w3.org/2000/svg" xmlns:xlink="http://www.w3.org/1999/xlink" x="0px" y="0px"
	 viewBox="0 0 292.2 281.16" style="enable-background:new 0 0 292.2 281.16;" xml:space="preserve">
<style type="text/css">
	.st0{fill:#FFFFFF;}
</style>
<g>
	<g>
		<path class="st0" d="M220.98,170.19l-43.65-43.64c-8.31-8.31-19.36-12.89-31.11-12.89c-11.75,0-22.8,4.58-31.11,12.89
			l-43.64,43.64c-21.86,21.86-21.86,57.43,0,79.29c10.59,10.59,24.67,16.42,39.64,16.42c12.93,0,25.19-4.35,35.11-12.35
			c9.92,8,22.18,12.35,35.11,12.35c14.98,0,29.05-5.83,39.64-16.42c10.59-10.59,16.42-24.67,16.42-39.64
			C237.4,194.86,231.57,180.78,220.98,170.19z M211.92,240.41c-8.17,8.17-19.03,12.67-30.58,12.67c-11.55,0-22.41-4.5-30.58-12.66
			c0,0-30.89-30.89-30.89-30.89c-6.1-6.1-6.1-16.03,0-22.14c6.1-6.1,16.03-6.1,22.13,0c2.5,2.5,6.56,2.5,9.06,0
			c6.1-6.1,16.03-6.1,22.13,0c6.1,6.1,6.1,16.03,0,22.14l-14.73,14.73c-2.5,2.5-2.5,6.56,0,9.06c2.5,2.5,6.56,2.5,9.06,0
			l14.73-14.73c11.1-11.1,11.1-29.16,0-40.26c-9.69-9.69-24.69-10.92-35.73-3.69c-11.04-7.23-26.03-6-35.73,3.69
			c-11.1,11.1-11.1,29.16,0,40.26l26.02,26.02c-7.4,5.49-16.33,8.46-25.72,8.46c-11.55,0-22.41-4.5-30.58-12.66
			c-16.86-16.86-16.86-44.3,0-61.16l43.64-43.64c5.89-5.89,13.72-9.13,22.05-9.13c8.33,0,16.16,3.24,22.05,9.13l43.65,43.64
			c8.17,8.17,12.67,19.03,12.67,30.58C224.59,221.38,220.09,232.25,211.92,240.41z"/>
		<g>
			<g>
				<path class="st0" d="M231.37,162.78L231.37,162.78c-0.77-0.28-1.55-0.6-2.29-0.95c-17.21-8.04-23.69-31.97-14.47-53.35
					c8.73-20.24,28.78-31.3,45.63-25.16c0.77,0.28,1.54,0.6,2.29,0.95c17.2,8.03,23.69,31.97,14.47,53.35
					C268.27,157.86,248.22,168.91,231.37,162.78z M253.75,101.16c-9.28-3.38-20.32,2.71-25.13,13.87
					c-5.08,11.78-1.51,24.97,7.97,29.39c9.5,4.42,21.37-1.67,26.41-13.34c5.08-11.78,1.51-24.97-7.97-29.39
					C254.6,101.49,254.18,101.31,253.75,101.16z"/>
			</g>
			<g>
				<path class="st0" d="M181.48,96.46L181.48,96.46c-9.53-1.68-17.67-8.35-22.35-18.29c-4.3-9.15-5.28-20.04-2.76-30.68
					c2.52-10.63,8.24-19.72,16.1-25.61c7.08-5.3,15.32-7.45,23.2-6.06c9.53,1.68,17.67,8.35,22.35,18.29
					c4.3,9.15,5.28,20.04,2.76,30.67c-2.52,10.63-8.24,19.73-16.1,25.61C197.6,95.7,189.36,97.85,181.48,96.46z M192.48,33.93
					c-4.34-0.77-8.88,0.42-12.78,3.34c-4.33,3.24-7.48,8.25-8.87,14.11c-1.39,5.86-0.85,11.86,1.52,16.9
					c2.57,5.48,7.06,9.15,12.32,10.08c4.34,0.77,8.88-0.42,12.78-3.34c4.33-3.24,7.48-8.25,8.87-14.11
					c1.39-5.86,0.85-11.86-1.52-16.9C202.22,38.53,197.73,34.86,192.48,33.93z"/>
			</g>
			<g>
				<path class="st0" d="M109.9,96.3C109.9,96.3,109.9,96.3,109.9,96.3c-0.79,0.14-1.59,0.24-2.38,0.31
					c-8.88,0.77-17.71-2.73-24.88-9.86c-7.17-7.13-11.82-17.03-13.09-27.88c-2.48-21.21,8.98-40.18,26.09-43.2
					c0.79-0.14,1.59-0.24,2.39-0.31c8.87-0.77,17.71,2.73,24.88,9.86c7.17,7.13,11.82,17.03,13.08,27.88
					C138.47,74.31,127.01,93.29,109.9,96.3z M98.82,33.78c-9.42,1.66-15.73,12.11-14.36,23.8c1.44,12.34,10.83,21.67,20.92,20.79
					c10.11-0.9,17.12-11.75,15.69-23.97c-0.7-5.98-3.26-11.43-7.21-15.36c-3.95-3.93-8.82-5.86-13.71-5.43
					C99.7,33.65,99.26,33.71,98.82,33.78z"/>
			</g>
			<g>
				<path class="st0" d="M60.89,162.38C60.88,162.38,60.89,162.38,60.89,162.38c-9.39,3.42-20.11,1.66-29.43-4.82
					c-8.57-5.96-15.07-15.2-18.3-26.01c-3.23-10.81-2.81-21.89,1.18-31.21c3.6-8.39,9.85-14.57,17.62-17.39
					c9.39-3.42,20.11-1.66,29.43,4.82c17.69,12.31,25.37,37.98,17.13,57.22C74.91,153.38,68.65,159.55,60.89,162.38z M38.44,100.78
					c-4.27,1.56-7.72,4.96-9.7,9.58c-2.2,5.14-2.44,11.24-0.65,17.2c1.78,5.95,5.36,11.04,10.08,14.33
					c5.13,3.57,11.04,4.54,16.22,2.65c4.27-1.56,7.72-4.96,9.7-9.58c4.54-10.6,0.31-24.74-9.44-31.53
					C49.53,99.87,43.62,98.9,38.44,100.78z"/>
			</g>
		</g>
	</g>
</g>
</svg>
